<svg id="Layer_1" enable-background="new 0 0 512 512" height="512" viewBox="0 0 512 512" width="512" xmlns="http://www.w3.org/2000/svg"><g><g><path d="m256 120c-17.645 0-32-14.355-32-32s14.355-32 32-32 32 14.355 32 32-14.355 32-32 32zm0-48c-8.822 0-16 7.177-16 16s7.178 16 16 16 16-7.177 16-16-7.178-16-16-16z" fill="#87aac8"/></g><g><g><path d="m264 360h-68.118c-12.73 0-24.939 5.057-33.941 14.059l-17.941 17.941 40 40 19.314-19.314c3.001-3.001 7.07-4.686 11.314-4.686h49.372c13.255 0 24-10.745 24-24 0-13.255-10.745-24-24-24z" fill="#fab991"/></g><g><path d="m379.313 348.686c-6.248-6.249-16.379-6.249-22.627 0l-59.313 59.314h-82.745c-4.243 0-8.313 1.686-11.314 4.686l-19.314 19.314 24 24 16-16h76.687c6.411 0 12.438-2.497 16.97-7.03l61.657-61.657c6.248-6.248 6.248-16.378-.001-22.627z" fill="#f0915a"/></g><g><path d="m264 397.333h-5.333c-4.418 0-8-3.582-8-8v-10.667c0-4.418 3.582-8 8-8h5.333c7.364 0 13.333 5.97 13.333 13.333 0 7.365-5.969 13.334-13.333 13.334z" fill="#f0915a"/></g><g><path d="m141.657 389.657 42.343 42.343-40 40h-96l82.343-82.343c3.124-3.124 8.19-3.124 11.314 0z" fill="#faa037"/></g><g><path d="m184 432 26.343 26.343c3.124 3.124 3.124 8.19 0 11.314l-2.343 2.343h-64z" fill="#f57828"/></g></g><g><path d="m480 328h-448c-8.837 0-16 7.163-16 16 0 8.837 7.163 16 16 16h448c8.837 0 16-7.163 16-16 0-8.837-7.163-16-16-16z" fill="#a0c8e1"/></g><g><path d="m240 328h-208c-8.837 0-16 7.163-16 16 0 8.837 7.163 16 16 16h208c8.837 0 16-7.163 16-16 0-8.837-7.163-16-16-16z" fill="#bedcf0"/></g><g><path d="m256 104c-123.712 0-224 100.288-224 224h448c0-123.712-100.288-224-224-224z" fill="#a0c8e1"/></g><g><path d="m66.676 304.001c-.442 0-.889-.037-1.339-.112-4.357-.734-7.294-4.861-6.56-9.218 7.756-46.039 31.72-88.216 67.476-118.762 36.164-30.895 82.242-47.909 129.747-47.909 4.418 0 8 3.582 8 8s-3.582 8-8 8c-90.168 0-166.477 64.484-181.445 153.329-.658 3.907-4.045 6.672-7.879 6.672z" fill="#bedcf0"/></g><g><path d="m368 216c61.856 0 112 50.144 112 112h-224c0-61.856 50.144-112 112-112z" fill="#87aac8"/></g><g><circle cx="384" cy="152" fill="#f04b37" r="112"/></g><g><g><g><path d="m388 142.667-12.848 12.848c-4.686 4.686-12.284 4.686-16.971 0l-34.544-34.544c-9.373-9.373-9.373-24.569 0-33.941l1.534-1.534c1.562-1.562 4.095-1.562 5.657 0z" fill="#d7e6e6"/></g><g><path d="m388 142.667-10.667 10.667 60 60c2.946 2.946 7.721 2.946 10.667 0 2.946-2.946 2.946-7.721 0-10.667z" fill="#d7e6e6"/></g><g><path d="m388 142.667c-2.946 2.946-2.946 7.721 0 10.667l60 60c2.946-2.946 2.946-7.721 0-10.667z" fill="#aac3d7"/></g></g><g><g><path d="m317.333 213.333c-2.946-2.946-2.946-7.721 0-10.667l81.171-81.171 10.667 10.667-81.171 81.171c-2.946 2.946-7.721 2.946-10.667 0z" fill="#d7e6e6"/></g><g><path d="m317.333 213.333 86.505-86.505 5.333 5.333-81.171 81.172c-2.946 2.946-7.721 2.946-10.667 0z" fill="#aac3d7"/></g><path d="m457.495 97.172c-1.563-1.562-4.096-1.562-5.656 0l-23.978 23.978-6.344-6.344 23.978-23.978c1.563-1.562 1.563-4.095 0-5.657-1.563-1.563-4.096-1.562-5.656 0l-23.979 23.979-6.343-6.343 23.978-23.978c1.563-1.562 1.563-4.095 0-5.657s-4.096-1.562-5.656 0l-30.343 30.343c-2.267 2.267-3.516 5.28-3.516 8.486s1.249 6.219 3.516 8.485l12.686 12.687c2.34 2.339 5.412 3.508 8.485 3.508s6.146-1.169 8.485-3.509l30.343-30.343c1.562-1.563 1.562-4.095 0-5.657z" fill="#d7e6e6"/></g></g></g></svg>